<?xml version="1.0" encoding="UTF-8" standalone="no"?>
<!-- Created with Inkscape (http://www.inkscape.org/) -->

<svg
   xmlns:dc="http://purl.org/dc/elements/1.1/"
   xmlns:cc="http://creativecommons.org/ns#"
   xmlns:rdf="http://www.w3.org/1999/02/22-rdf-syntax-ns#"
   xmlns:svg="http://www.w3.org/2000/svg"
   xmlns="http://www.w3.org/2000/svg"
   xmlns:sodipodi="http://sodipodi.sourceforge.net/DTD/sodipodi-0.dtd"
   xmlns:inkscape="http://www.inkscape.org/namespaces/inkscape"
   width="410"
   height="410"
   viewBox="0 0 409.99999 409.99998"
   id="svg2"
   version="1.1"
   inkscape:version="0.91 r13725"
   sodipodi:docname="logo.svg">
  <defs
     id="defs4" />
  <sodipodi:namedview
     id="base"
     pagecolor="#ffffff"
     bordercolor="#666666"
     borderopacity="1.0"
     inkscape:pageopacity="0.0"
     inkscape:pageshadow="2"
     inkscape:zoom="0.98994949"
     inkscape:cx="137.35757"
     inkscape:cy="253.24793"
     inkscape:document-units="px"
     inkscape:current-layer="layer1"
     showgrid="false"
     inkscape:showpageshadow="false"
     fit-margin-top="0"
     fit-margin-left="0"
     fit-margin-right="0"
     fit-margin-bottom="0"
     units="px"
     inkscape:window-width="1440"
     inkscape:window-height="797"
     inkscape:window-x="0"
     inkscape:window-y="1"
     inkscape:window-maximized="1" />
  <metadata
     id="metadata7">
    <rdf:RDF>
      <cc:Work
         rdf:about="">
        <dc:format>image/svg+xml</dc:format>
        <dc:type
           rdf:resource="http://purl.org/dc/dcmitype/StillImage" />
        <dc:title></dc:title>
      </cc:Work>
    </rdf:RDF>
  </metadata>
  <g
     inkscape:label="Calque 1"
     inkscape:groupmode="layer"
     id="layer1"
     transform="translate(1.9967556e-6,-642.36221)">
    <path
       style="fill:#fafafa;stroke:none;fill-opacity:1"
       d="M 205 5 A 200 200 0 0 0 5 205 A 200 200 0 0 0 205 405 A 200 200 0 0 0 346.33398 346.33398 L 254.44141 254.44141 A 70 70 0 0 1 204.29883 275.70117 A 70 70 0 0 1 134.29883 205.70117 A 70 70 0 0 1 204.29883 135.70117 A 70 70 0 0 1 253.76562 156.23438 L 346.33398 63.666016 A 200 200 0 0 0 205 5 z "
       transform="translate(-1.9967556e-6,642.36219)"
       id="path3347" />
    <path
       style="fill:#ff5252;fill-rule:evenodd;stroke:none;stroke-width:0.80298251px;stroke-linecap:butt;stroke-linejoin:miter;stroke-opacity:1;fill-opacity:1"
       d="M 205 5.4023438 A 199.59851 199.59851 0 0 0 5.4023438 205 A 199.59851 199.59851 0 0 0 205 404.59766 A 199.59851 199.59851 0 0 0 346.30664 345.80859 L 291.88477 291.38867 A 122.61051 122.61051 0 0 1 205 327.61133 A 122.61051 122.61051 0 0 1 82.388672 205 A 122.61051 122.61051 0 0 1 205 82.388672 A 122.61051 122.61051 0 0 1 291.90234 118.59375 L 346.28906 64.207031 A 199.59851 199.59851 0 0 0 205 5.4023438 z "
       id="path3336"
       transform="translate(-1.9967556e-6,642.36219)" />
  </g>
</svg>
